<svg xmlns="http://www.w3.org/2000/svg" xmlns:xlink="http://www.w3.org/1999/xlink" viewBox="0 0 366.89 65.76"><defs><style>.cls-1,.cls-7,.cls-9{fill:none;}.cls-2{font-size:44px;fill:#4008da;font-family:Poppins-Bold, Poppins;font-weight:700;letter-spacing:0.05em;}.cls-3{font-size:9.75px;fill:#9375ff;stroke:#1908da;font-family:Poppins-Medium, Poppins;font-weight:500;letter-spacing:0.4em;}.cls-3,.cls-7,.cls-9{stroke-miterlimit:10;}.cls-4{fill:url(#Degradado_sin_nombre_58);}.cls-5{fill:#fff;}.cls-6{clip-path:url(#clip-path);}.cls-7{stroke:url(#Degradado_sin_nombre_26);}.cls-8{clip-path:url(#clip-path-2);}.cls-9{stroke:url(#Degradado_sin_nombre_26-2);}</style><linearGradient id="Degradado_sin_nombre_58" x1="-11.31" y1="-35.55" x2="85.86" y2="118.43" gradientUnits="userSpaceOnUse"><stop offset="0" stop-color="#1306a3"/><stop offset="0.14" stop-color="#1d0faa"/><stop offset="0.39" stop-color="#3927be"/><stop offset="0.71" stop-color="#664ede"/><stop offset="1" stop-color="#9375ff"/></linearGradient><clipPath id="clip-path"><path class="cls-1" d="M32.45,36.87H21.73L11.6,25.77,21.73,14.66H32.45L22.28,25.77Z"/></clipPath><linearGradient id="Degradado_sin_nombre_26" x1="16.01" y1="24.8" x2="29.71" y2="24.8" gradientUnits="userSpaceOnUse"><stop offset="0" stop-color="#9375ff"/><stop offset="1" stop-color="#1306a3"/></linearGradient><clipPath id="clip-path-2"><path class="cls-1" d="M30.22,25H40.94L51.06,36.14,40.94,47.24H30.22l10.17-11.1Z"/></clipPath><linearGradient id="Degradado_sin_nombre_26-2" x1="32.96" y1="37.11" x2="46.65" y2="37.11" xlink:href="#Degradado_sin_nombre_26"/></defs><g id="Layer_2" data-name="Layer 2"><g id="OBJECTS"><text class="cls-2" transform="translate(76.91 38.3) scale(0.99 1)">codeMaster</text><text class="cls-3" transform="translate(78.31 59.58) scale(0.99 1)">LEARN ANYTIME ANYWHERE</text><rect class="cls-4" width="61.11" height="61.58" rx="11.47"/><path class="cls-5" d="M32.45,36.87H21.73L11.6,25.77,21.73,14.66H32.45L22.28,25.77Z"/><path class="cls-5" d="M30.12,25.2H40.84L51,36.3,40.84,47.41H30.12L40.29,36.3Z"/><g class="cls-6"><polyline class="cls-7" points="29.32 10.7 16.67 25.77 27.88 38.89"/></g><g class="cls-8"><polyline class="cls-9" points="33.34 51.21 46 36.14 34.78 23.02"/></g></g></g></svg>