<?xml version="1.0" encoding="UTF-8"?>
<svg xmlns="http://www.w3.org/2000/svg" xmlns:xlink="http://www.w3.org/1999/xlink" width="150pt" height="149.999998pt" viewBox="0 0 150 149.999998" version="1.2">
<g id="surface1">
<path style=" stroke:none;fill-rule:nonzero;fill:rgb(100%,8.628845%,8.628845%);fill-opacity:1;" d="M 75.992188 140.542969 C 74.230469 140.542969 72.460938 140.613281 70.703125 140.515625 C 69.679688 140.457031 68.609375 140.4375 67.648438 139.929688 C 67.488281 139.84375 67.289062 139.800781 67.101562 139.792969 C 65.890625 139.726562 64.714844 139.355469 63.488281 139.425781 C 62.8125 139.460938 62.175781 139.335938 61.59375 138.902344 C 60.914062 138.390625 60.054688 138.585938 59.277344 138.460938 C 59.027344 138.421875 58.714844 138.476562 58.542969 138.34375 C 57.613281 137.628906 56.46875 137.609375 55.40625 137.347656 C 54.875 137.21875 54.546875 136.789062 54.015625 136.667969 C 53.128906 136.460938 52.214844 136.304688 51.472656 135.6875 C 51.316406 135.558594 51.035156 135.5625 50.808594 135.53125 C 50.226562 135.445312 49.621094 135.421875 49.273438 134.832031 C 49.261719 134.8125 49.242188 134.789062 49.226562 134.789062 C 48.003906 134.703125 47.226562 133.585938 46.035156 133.429688 C 45.953125 133.417969 45.847656 133.429688 45.792969 133.378906 C 45.070312 132.742188 44.066406 132.585938 43.359375 131.949219 C 43.160156 131.769531 42.972656 131.636719 42.726562 131.570312 C 42.234375 131.441406 41.777344 131.28125 41.472656 130.816406 C 41.339844 130.613281 41.101562 130.480469 40.839844 130.4375 C 40.449219 130.378906 40.148438 130.15625 39.875 129.882812 C 39.800781 129.808594 39.734375 129.683594 39.652344 129.667969 C 38.765625 129.519531 38.226562 128.820312 37.585938 128.320312 C 36.878906 127.765625 36.074219 127.363281 35.414062 126.726562 C 35 126.332031 34.464844 126.003906 33.980469 125.65625 C 32.671875 124.722656 31.585938 123.546875 30.363281 122.523438 C 29.273438 121.609375 28.414062 120.476562 27.363281 119.539062 C 26.40625 118.679688 25.675781 117.625 24.796875 116.703125 C 24.257812 116.136719 23.664062 115.546875 23.316406 114.75 C 23.105469 114.273438 22.636719 113.816406 22.242188 113.425781 C 21.605469 112.792969 21.257812 111.984375 20.742188 111.292969 C 20.328125 110.734375 19.816406 110.191406 19.539062 109.503906 C 19.351562 109.035156 19.195312 108.511719 18.695312 108.226562 C 18.53125 108.132812 18.46875 107.933594 18.4375 107.742188 C 18.359375 107.269531 18.160156 106.863281 17.785156 106.554688 C 17.597656 106.402344 17.519531 106.203125 17.449219 105.972656 C 17.292969 105.480469 17.125 104.992188 16.730469 104.605469 C 16.511719 104.390625 16.375 104.09375 16.328125 103.769531 C 16.296875 103.566406 16.253906 103.339844 16.140625 103.175781 C 15.75 102.609375 15.527344 101.941406 15.183594 101.390625 C 14.6875 100.597656 14.492188 99.757812 14.226562 98.914062 C 14.113281 98.546875 13.949219 98.234375 13.746094 97.910156 C 13.5 97.519531 13.335938 97.046875 13.300781 96.558594 C 13.28125 96.242188 13.289062 95.855469 13.054688 95.667969 C 12.359375 95.09375 12.378906 94.304688 12.335938 93.546875 C 12.300781 92.894531 12.109375 92.3125 11.738281 91.792969 C 11.550781 91.535156 11.519531 91.25 11.488281 90.960938 C 11.359375 89.839844 11.121094 88.765625 10.710938 87.695312 C 10.390625 86.859375 10.382812 85.890625 10.320312 84.976562 C 10.242188 83.851562 10.269531 82.722656 9.917969 81.625 C 9.628906 80.730469 9.898438 79.777344 9.714844 78.875 C 9.351562 77.117188 9.25 75.328125 9.433594 73.570312 C 9.601562 71.976562 9.625 70.363281 9.871094 68.800781 C 10.09375 67.390625 10.246094 65.996094 10.34375 64.578125 C 10.382812 63.96875 10.589844 63.367188 10.785156 62.769531 C 11.03125 62.003906 11.261719 61.207031 11.367188 60.410156 C 11.488281 59.539062 11.523438 58.675781 11.984375 57.886719 C 12.328125 57.292969 12.347656 56.605469 12.386719 55.933594 C 12.410156 55.5625 12.507812 55.203125 12.75 54.949219 C 13.199219 54.484375 13.292969 53.917969 13.316406 53.332031 C 13.328125 52.957031 13.433594 52.589844 13.644531 52.335938 C 14.199219 51.671875 14.34375 50.871094 14.5 50.078125 C 14.582031 49.679688 14.941406 49.449219 15.027344 49.097656 C 15.300781 47.957031 16.222656 47.121094 16.433594 45.949219 C 16.53125 45.398438 17.164062 45.117188 17.304688 44.53125 C 17.4375 43.96875 17.835938 43.535156 18.152344 43.058594 C 18.542969 42.472656 18.882812 41.820312 19.238281 41.191406 C 19.496094 40.738281 19.730469 40.285156 20.101562 39.914062 C 20.234375 39.777344 20.386719 39.652344 20.414062 39.453125 C 20.488281 38.953125 20.800781 38.652344 21.128906 38.28125 C 21.496094 37.863281 21.90625 37.398438 22.15625 36.910156 C 22.5625 36.125 23.222656 35.542969 23.6875 34.808594 C 24.042969 34.242188 24.515625 33.621094 25.074219 33.109375 C 26.078125 32.191406 26.921875 31.089844 27.855469 30.089844 C 28.816406 29.066406 29.683594 27.90625 30.972656 27.21875 C 31.359375 27.011719 31.523438 26.574219 31.863281 26.28125 C 32.433594 25.785156 33.128906 25.410156 33.554688 24.75 C 33.601562 24.683594 33.660156 24.613281 33.726562 24.570312 C 34.15625 24.289062 34.546875 23.808594 34.921875 23.660156 C 35.648438 23.375 36.101562 22.8125 36.699219 22.417969 C 37.507812 21.886719 38.1875 21.121094 39.046875 20.707031 C 39.949219 20.273438 40.617188 19.460938 41.613281 19.222656 C 41.839844 19.167969 42.027344 19.054688 42.179688 18.855469 C 42.386719 18.589844 42.660156 18.390625 43.015625 18.339844 C 43.035156 18.335938 43.0625 18.339844 43.078125 18.328125 C 43.90625 17.589844 45.089844 17.484375 45.921875 16.753906 C 45.9375 16.738281 45.945312 16.710938 45.960938 16.707031 C 47.042969 16.433594 47.890625 15.65625 48.949219 15.34375 C 48.96875 15.335938 48.992188 15.34375 49.011719 15.332031 C 50.230469 14.644531 51.675781 14.476562 52.851562 13.6875 C 53.222656 13.441406 53.660156 13.464844 54.0625 13.402344 C 54.894531 13.269531 55.515625 12.679688 56.300781 12.472656 C 56.503906 12.417969 56.707031 12.347656 56.914062 12.34375 C 57.859375 12.332031 58.730469 12.054688 59.546875 11.601562 C 59.742188 11.496094 59.941406 11.457031 60.148438 11.441406 C 61.367188 11.359375 62.554688 11.179688 63.679688 10.660156 C 64.046875 10.488281 64.507812 10.453125 64.917969 10.46875 C 66.101562 10.523438 67.300781 10.410156 68.40625 10.128906 C 70.347656 9.636719 72.332031 9.882812 74.253906 9.53125 C 75.972656 9.21875 77.703125 9.238281 79.390625 9.414062 C 80.785156 9.558594 82.242188 9.535156 83.59375 10.054688 C 83.785156 10.128906 84.007812 10.171875 84.210938 10.160156 C 85.496094 10.09375 86.746094 10.457031 88.027344 10.472656 C 89.007812 10.484375 89.886719 11.066406 90.871094 11.195312 C 91.148438 11.234375 91.433594 11.339844 91.726562 11.351562 C 92.503906 11.382812 93.277344 11.453125 93.957031 11.890625 C 94.472656 12.21875 95.0625 12.273438 95.644531 12.316406 C 96.269531 12.367188 96.824219 12.582031 97.335938 12.921875 C 97.898438 13.296875 98.585938 13.238281 99.195312 13.445312 C 99.4375 13.527344 99.671875 13.570312 99.855469 13.769531 C 99.96875 13.886719 100.117188 14.015625 100.269531 14.039062 C 101.609375 14.277344 102.753906 15.058594 104.054688 15.390625 C 104.15625 15.417969 104.273438 15.445312 104.339844 15.515625 C 104.890625 16.117188 105.65625 16.269531 106.386719 16.492188 C 106.59375 16.558594 106.75 16.6875 106.894531 16.84375 C 107.171875 17.148438 107.523438 17.324219 107.925781 17.402344 C 108.089844 17.433594 108.296875 17.433594 108.40625 17.53125 C 109.671875 18.636719 111.261719 19.222656 112.636719 20.167969 C 113.828125 20.988281 114.992188 21.867188 116.242188 22.625 C 116.792969 22.960938 117.382812 23.402344 117.890625 23.890625 C 118.527344 24.507812 119.265625 25.023438 119.980469 25.550781 C 120.441406 25.890625 120.832031 26.324219 121.234375 26.703125 C 121.707031 27.144531 122.175781 27.671875 122.667969 28.070312 C 123.234375 28.53125 123.789062 29.03125 124.328125 29.515625 C 124.796875 29.9375 125.253906 30.429688 125.617188 30.976562 C 125.78125 31.226562 126.003906 31.402344 126.191406 31.613281 C 126.683594 32.164062 127.355469 32.539062 127.6875 33.265625 C 128.007812 33.96875 128.644531 34.464844 129.125 35.066406 C 129.695312 35.777344 130.320312 36.433594 130.824219 37.214844 C 131.164062 37.75 131.582031 38.265625 131.953125 38.800781 C 132.292969 39.289062 132.589844 39.867188 132.960938 40.253906 C 133.554688 40.878906 133.871094 41.632812 134.292969 42.320312 C 134.828125 43.195312 135.3125 44.132812 135.871094 44.988281 C 136.433594 45.851562 136.566406 46.933594 137.355469 47.660156 C 137.65625 47.9375 137.722656 48.371094 137.824219 48.738281 C 138.09375 49.6875 138.660156 50.496094 139 51.417969 C 139.296875 52.214844 139.660156 53.003906 139.976562 53.808594 C 140.40625 54.890625 140.894531 55.941406 141 57.121094 C 141.015625 57.3125 141.109375 57.484375 141.253906 57.617188 C 141.398438 57.746094 141.523438 57.898438 141.539062 58.09375 C 141.683594 59.96875 142.8125 61.617188 142.789062 63.542969 C 142.78125 64.328125 142.964844 65.125 143.371094 65.828125 C 143.542969 66.121094 143.492188 66.4375 143.539062 66.742188 C 143.933594 69.292969 144.011719 71.863281 144.007812 74.441406 C 144.003906 77.019531 144.066406 79.601562 143.84375 82.171875 C 143.761719 83.125 143.71875 84.085938 143.601562 85.039062 C 143.527344 85.644531 143.140625 86.136719 143.003906 86.738281 C 142.800781 87.625 142.902344 88.554688 142.648438 89.402344 C 142.28125 90.628906 141.964844 91.878906 141.554688 93.074219 C 141.214844 94.0625 140.855469 95.050781 140.613281 96.074219 C 140.511719 96.488281 140.101562 96.679688 140.011719 97.085938 C 139.726562 98.378906 139.035156 99.515625 138.453125 100.671875 C 138.015625 101.542969 137.648438 102.464844 137.136719 103.320312 C 136.640625 104.140625 136.074219 104.9375 135.613281 105.792969 C 135.273438 106.414062 134.847656 107.082031 134.234375 107.582031 C 133.746094 107.980469 133.398438 108.546875 132.945312 109.007812 C 132.40625 109.554688 131.902344 110.136719 131.242188 110.539062 C 130.75 110.835938 130.359375 111.28125 129.949219 111.632812 C 129.222656 112.261719 128.238281 112.421875 127.59375 113.144531 C 127.425781 113.332031 127.0625 113.359375 126.78125 113.4375 C 126.328125 113.566406 125.925781 113.761719 125.605469 114.121094 C 125.425781 114.324219 125.179688 114.367188 124.921875 114.382812 C 124.265625 114.417969 123.625 114.519531 123.042969 114.84375 C 122.363281 115.21875 121.625 115.335938 120.863281 115.359375 C 118.367188 115.441406 115.875 115.460938 113.378906 115.316406 C 113.214844 115.304688 113.007812 115.324219 112.886719 115.238281 C 111.816406 114.476562 110.425781 114.644531 109.355469 114.082031 C 108.523438 113.644531 107.585938 113.375 106.804688 112.742188 C 106.128906 112.195312 105.359375 111.699219 104.601562 111.242188 C 104.113281 110.945312 103.667969 110.585938 103.289062 110.214844 C 102.453125 109.386719 101.640625 108.53125 100.871094 107.632812 C 100.21875 106.867188 99.746094 105.988281 99.214844 105.183594 C 98.6875 104.378906 97.929688 103.570312 97.894531 102.484375 C 97.882812 102.21875 97.757812 101.976562 97.59375 101.800781 C 96.960938 101.105469 96.898438 100.226562 96.746094 99.375 C 96.71875 99.210938 96.710938 99.011719 96.617188 98.894531 C 95.910156 97.996094 95.949219 96.90625 95.773438 95.863281 C 95.171875 92.25 95.269531 88.605469 95.273438 84.960938 C 95.273438 84.34375 95.371094 83.753906 95.617188 83.183594 C 95.691406 83.015625 95.730469 82.824219 95.738281 82.640625 C 95.789062 81.386719 95.703125 80.125 95.863281 78.871094 C 95.882812 78.730469 95.855469 78.578125 95.835938 78.433594 C 95.785156 78.035156 95.753906 77.582031 95.265625 77.488281 C 94.832031 77.40625 94.746094 77.882812 94.488281 78.089844 C 93.726562 78.699219 93.351562 79.597656 92.738281 80.316406 C 92.023438 81.152344 91.324219 82.003906 90.597656 82.828125 C 89.597656 83.96875 88.683594 85.179688 87.742188 86.359375 C 86.839844 87.492188 85.808594 88.519531 84.976562 89.714844 C 84.597656 90.253906 84.113281 90.78125 83.710938 91.308594 C 83.257812 91.910156 82.773438 92.519531 82.269531 93.046875 C 81.648438 93.703125 81.148438 94.4375 80.609375 95.140625 C 79.839844 96.136719 79.011719 97.101562 78.097656 97.925781 C 77.585938 98.386719 77.242188 99.132812 76.417969 99.289062 C 76.054688 99.359375 75.6875 99.605469 75.480469 99.988281 C 75.382812 100.164062 75.1875 100.222656 75 100.25 C 73.640625 100.433594 72.28125 100.421875 70.921875 100.265625 C 70.714844 100.238281 70.527344 100.144531 70.375 99.980469 C 70.207031 99.796875 70.03125 99.542969 69.816406 99.488281 C 68.976562 99.277344 68.726562 98.398438 68.042969 98.003906 C 67.761719 97.84375 67.847656 97.394531 67.628906 97.113281 C 66.929688 96.214844 66.640625 95.160156 66.578125 94.042969 C 66.546875 93.46875 66.328125 92.945312 66.21875 92.394531 C 66.078125 91.679688 66.089844 90.996094 66.402344 90.304688 C 66.652344 89.742188 66.542969 89.105469 66.585938 88.503906 C 66.648438 87.605469 66.746094 86.714844 66.867188 85.824219 C 66.976562 85.027344 67.574219 84.410156 67.648438 83.597656 C 67.667969 83.402344 67.757812 83.199219 67.769531 82.988281 C 67.804688 82.300781 67.832031 81.625 68.320312 81.046875 C 68.640625 80.667969 68.703125 80.167969 68.730469 79.683594 C 68.761719 79.238281 68.855469 78.8125 69.058594 78.414062 C 69.425781 77.679688 69.726562 76.9375 69.710938 76.085938 C 69.707031 75.753906 69.9375 75.46875 70.191406 75.230469 C 70.335938 75.097656 70.421875 74.921875 70.324219 74.722656 C 70.234375 74.546875 70.058594 74.535156 69.890625 74.519531 C 69.097656 74.445312 68.515625 74.824219 68.273438 75.613281 C 68.1875 75.886719 68.082031 76.117188 67.789062 76.214844 C 67.691406 76.246094 67.566406 76.304688 67.53125 76.386719 C 66.945312 77.679688 65.730469 78.511719 65.070312 79.78125 C 64.777344 80.339844 64.1875 80.84375 63.78125 81.410156 C 63.230469 82.179688 62.644531 82.933594 62.222656 83.78125 C 62.050781 84.125 61.675781 84.265625 61.519531 84.554688 C 61.105469 85.332031 60.453125 85.933594 60.050781 86.726562 C 59.785156 87.25 59.347656 87.722656 58.976562 88.203125 C 58.296875 89.089844 57.644531 89.984375 57.0625 90.941406 C 56.808594 91.355469 56.441406 91.722656 56.121094 92.078125 C 55.578125 92.683594 55.132812 93.363281 54.574219 93.953125 C 54.503906 94.027344 54.414062 94.101562 54.371094 94.191406 C 53.824219 95.324219 52.730469 96 52.003906 97 C 51.675781 97.453125 51.011719 97.800781 50.59375 98.242188 C 49.800781 99.085938 48.679688 99.296875 47.800781 99.949219 C 47.132812 100.445312 46.320312 100.289062 45.582031 100 C 45.136719 99.824219 44.726562 99.5625 44.292969 99.351562 C 43.496094 98.960938 42.996094 98.253906 42.371094 97.675781 C 41.398438 96.769531 41.515625 95.46875 40.828125 94.476562 C 40.445312 93.921875 40.472656 93.03125 40.453125 92.285156 C 40.398438 90.484375 40.390625 88.679688 40.433594 86.878906 C 40.457031 85.730469 40.648438 84.589844 40.730469 83.445312 C 40.792969 82.621094 41.328125 81.898438 41.410156 81.046875 C 41.441406 80.726562 41.546875 80.402344 41.570312 80.066406 C 41.621094 79.292969 41.644531 78.515625 42.132812 77.851562 C 42.476562 77.386719 42.472656 76.824219 42.527344 76.289062 C 42.605469 75.496094 42.742188 74.734375 43.214844 74.046875 C 43.507812 73.621094 43.472656 73.078125 43.523438 72.585938 C 43.625 71.628906 44.230469 70.863281 44.4375 69.949219 C 44.5 69.664062 44.578125 69.386719 44.605469 69.09375 C 44.660156 68.507812 44.714844 67.925781 45.242188 67.515625 C 45.433594 67.371094 45.4375 67.109375 45.46875 66.878906 C 45.585938 65.96875 45.734375 65.101562 46.257812 64.28125 C 46.589844 63.765625 46.601562 63.046875 46.75 62.417969 C 46.796875 62.210938 46.8125 61.972656 46.992188 61.851562 C 47.558594 61.460938 47.585938 60.871094 47.609375 60.28125 C 47.628906 59.742188 47.726562 59.246094 48.15625 58.863281 C 48.59375 58.46875 48.5 57.898438 48.601562 57.394531 C 48.652344 57.152344 48.582031 56.867188 48.765625 56.671875 C 49.25 56.144531 49.472656 55.519531 49.621094 54.828125 C 49.726562 54.328125 49.945312 53.84375 50.355469 53.46875 C 50.636719 53.214844 50.605469 52.8125 50.652344 52.464844 C 50.707031 52.03125 50.835938 51.644531 51.222656 51.394531 C 51.53125 51.199219 51.472656 50.835938 51.625 50.570312 C 52.121094 49.742188 52.753906 49.011719 53.308594 48.226562 C 53.683594 47.6875 54.21875 47.335938 54.613281 46.828125 C 54.949219 46.394531 55.394531 45.960938 55.886719 45.746094 C 57.15625 45.195312 58.386719 44.453125 59.859375 44.550781 C 60.15625 44.570312 60.457031 44.582031 60.695312 44.78125 C 61.15625 45.164062 61.710938 45.320312 62.257812 45.53125 C 63.28125 45.929688 63.890625 46.742188 64.382812 47.714844 C 65.007812 48.949219 65.089844 50.289062 64.800781 51.503906 C 64.503906 52.753906 64.347656 54.007812 64.234375 55.257812 C 64.132812 56.335938 63.558594 57.214844 63.335938 58.222656 C 63.277344 58.484375 63.25 58.757812 63.226562 59.027344 C 63.160156 59.757812 63.128906 60.488281 62.613281 61.089844 C 62.292969 61.460938 62.28125 61.953125 62.273438 62.40625 C 62.257812 63.191406 61.992188 63.890625 61.59375 64.535156 C 61.28125 65.042969 61.253906 65.632812 61.1875 66.160156 C 61.078125 67.003906 60.644531 67.695312 60.382812 68.457031 C 60.207031 68.976562 60.203125 69.484375 60.230469 70.003906 C 60.246094 70.359375 60.449219 70.640625 60.824219 70.730469 C 61.183594 70.8125 61.421875 70.605469 61.609375 70.332031 C 62.390625 69.183594 63.117188 67.992188 63.96875 66.894531 C 64.691406 65.960938 65.367188 65 66.011719 64.011719 C 66.652344 63.03125 67.292969 62.035156 68 61.113281 C 68.867188 59.992188 69.59375 58.773438 70.4375 57.636719 C 70.886719 57.039062 71.296875 56.359375 71.789062 55.8125 C 72.40625 55.125 72.851562 54.335938 73.390625 53.609375 C 73.863281 52.972656 74.488281 52.460938 74.84375 51.726562 C 75.046875 51.3125 75.503906 51.09375 75.808594 50.71875 C 76.964844 49.269531 78.25 47.910156 79.683594 46.734375 C 80.398438 46.148438 81.066406 45.378906 82.09375 45.25 C 83.53125 43.871094 85.300781 44.566406 86.945312 44.492188 C 87.085938 44.488281 87.285156 44.523438 87.355469 44.617188 C 87.988281 45.457031 88.910156 45.972656 89.546875 46.863281 C 90.371094 48.019531 90.484375 49.433594 91.289062 50.546875 C 91.351562 50.628906 91.410156 50.738281 91.410156 50.832031 C 91.378906 52.890625 91.855469 54.992188 90.988281 56.976562 C 90.652344 57.742188 90.492188 58.550781 90.410156 59.335938 C 90.308594 60.316406 90.042969 61.207031 89.632812 62.074219 C 89.5 62.351562 89.449219 62.632812 89.445312 62.925781 C 89.441406 63.800781 89.273438 64.628906 88.753906 65.359375 C 88.496094 65.722656 88.476562 66.148438 88.464844 66.566406 C 88.4375 67.382812 88.167969 68.113281 87.824219 68.84375 C 87.390625 69.761719 87.394531 70.789062 87.214844 71.769531 C 87.164062 72.035156 87.890625 72.296875 88.179688 72.109375 C 88.355469 72 88.53125 71.859375 88.640625 71.6875 C 89.296875 70.679688 90.144531 69.824219 90.980469 68.980469 C 92.273438 67.675781 93.355469 66.199219 94.554688 64.820312 C 95.039062 64.257812 95.617188 63.746094 95.960938 63.046875 C 96.195312 62.566406 96.617188 62.175781 96.984375 61.808594 C 97.835938 60.953125 98.425781 59.914062 99.183594 59.007812 C 99.652344 58.445312 100.1875 57.90625 100.628906 57.332031 C 101.273438 56.496094 101.984375 55.726562 102.726562 54.988281 C 103.289062 54.421875 103.902344 53.898438 104.503906 53.367188 C 106.246094 51.828125 108.175781 52.332031 110.113281 52.632812 C 110.214844 52.648438 110.339844 52.679688 110.394531 52.75 C 111.296875 53.832031 112.445312 54.738281 112.675781 56.289062 C 112.761719 56.851562 112.914062 57.464844 113.277344 57.984375 C 113.496094 58.292969 113.488281 58.707031 113.488281 59.082031 C 113.484375 61.386719 113.714844 63.707031 113.355469 65.992188 C 113.144531 67.347656 112.886719 68.703125 112.714844 70.066406 C 112.5625 71.226562 112.578125 72.40625 112.546875 73.582031 C 112.496094 75.292969 112.257812 76.972656 111.804688 78.625 C 111.769531 78.742188 111.761719 78.871094 111.757812 79 C 111.566406 84.238281 111.570312 89.480469 111.667969 94.71875 C 111.691406 96 111.707031 97.289062 112.40625 98.492188 C 112.703125 99 112.5625 99.761719 112.625 100.40625 C 112.648438 100.632812 112.609375 100.921875 112.734375 101.078125 C 113.382812 101.898438 113.355469 102.984375 113.828125 103.839844 C 114.433594 104.945312 115.085938 106.035156 116.050781 106.945312 C 116.816406 107.667969 117.773438 107.847656 118.609375 108.328125 C 119.199219 108.660156 119.914062 108.601562 120.585938 108.1875 C 121.011719 107.921875 121.566406 107.847656 122.074219 107.746094 C 122.480469 107.660156 122.789062 107.523438 123.082031 107.195312 C 123.484375 106.738281 124.03125 106.417969 124.5 106.011719 C 125.515625 105.121094 126.433594 104.171875 127.269531 103.105469 C 127.769531 102.46875 128.144531 101.746094 128.683594 101.148438 C 128.84375 100.972656 128.957031 100.792969 129.050781 100.578125 C 129.238281 100.140625 129.527344 99.742188 129.730469 99.328125 C 130.230469 98.3125 130.925781 97.382812 131.179688 96.253906 C 131.234375 96.015625 131.328125 95.753906 131.488281 95.574219 C 132.046875 94.9375 132.101562 94.125 132.316406 93.371094 C 132.464844 92.84375 132.96875 92.519531 133.023438 91.925781 C 133.054688 91.609375 133.183594 91.285156 133.199219 90.949219 C 133.230469 90.316406 133.355469 89.726562 133.75 89.1875 C 134.226562 88.542969 134.109375 87.738281 134.164062 86.996094 C 134.226562 86.152344 134.320312 85.351562 134.808594 84.621094 C 135.058594 84.253906 135.03125 83.765625 135.042969 83.332031 C 135.121094 80.007812 135.640625 76.699219 135.476562 73.367188 C 135.347656 70.839844 135.128906 68.316406 134.988281 65.789062 C 134.957031 65.230469 134.617188 64.824219 134.457031 64.328125 C 134.160156 63.394531 134.183594 62.429688 134.082031 61.476562 C 134.03125 60.984375 133.933594 60.535156 133.578125 60.160156 C 133.199219 59.761719 133.253906 59.21875 133.210938 58.726562 C 133.140625 57.921875 132.964844 57.171875 132.457031 56.511719 C 132.335938 56.355469 132.3125 56.125 132.25 55.925781 C 132.007812 55.167969 132.015625 54.300781 131.285156 53.746094 C 131.195312 53.679688 131.191406 53.472656 131.1875 53.328125 C 131.175781 52.652344 130.96875 52.050781 130.496094 51.558594 C 130.164062 51.214844 130.257812 50.722656 130.039062 50.339844 C 129.445312 49.300781 128.878906 48.246094 128.273438 47.214844 C 127.621094 46.097656 126.996094 44.972656 126.238281 43.910156 C 125.5 42.878906 124.859375 41.757812 124.074219 40.753906 C 123.59375 40.140625 123.097656 39.527344 122.625 38.910156 C 122.132812 38.265625 121.472656 37.816406 121 37.128906 C 120.398438 36.253906 119.613281 35.425781 118.765625 34.726562 C 118.3125 34.351562 117.910156 33.917969 117.523438 33.496094 C 117.011719 32.9375 116.347656 32.601562 115.816406 32.066406 C 115.320312 31.566406 114.847656 31.011719 114.269531 30.5625 C 113.601562 30.046875 112.871094 29.617188 112.230469 29.0625 C 111.488281 28.417969 110.605469 27.949219 109.816406 27.355469 C 109.097656 26.816406 108.328125 26.28125 107.464844 25.875 C 106.609375 25.476562 105.753906 24.984375 104.921875 24.488281 C 103.933594 23.898438 103.003906 23.167969 101.832031 22.9375 C 101.625 22.894531 101.390625 22.914062 101.25 22.738281 C 100.644531 22 99.742188 22.015625 98.933594 21.777344 C 98.34375 21.601562 97.882812 21.144531 97.234375 21.042969 C 96.566406 20.9375 95.929688 20.722656 95.375 20.234375 C 94.984375 19.894531 94.371094 19.980469 93.851562 19.933594 C 93.394531 19.894531 92.980469 19.757812 92.625 19.5 C 92.304688 19.261719 91.972656 19.132812 91.585938 19.105469 C 90.246094 19.011719 88.972656 18.660156 87.683594 18.289062 C 86.199219 17.867188 84.59375 18.015625 83.082031 17.71875 C 81.664062 17.4375 80.226562 17.535156 78.796875 17.21875 C 77.21875 16.867188 75.5 16.902344 73.90625 17.1875 C 71.785156 17.566406 69.664062 17.742188 67.53125 17.933594 C 66.621094 18.015625 65.703125 18.136719 64.796875 18.28125 C 64.363281 18.347656 64.070312 18.710938 63.609375 18.808594 C 62.925781 18.949219 62.246094 18.996094 61.558594 19.078125 C 61.101562 19.132812 60.671875 19.253906 60.265625 19.523438 C 59.734375 19.875 59.097656 19.964844 58.464844 20.003906 C 58.171875 20.023438 57.8125 19.988281 57.613281 20.1875 C 56.878906 20.929688 55.792969 20.789062 54.992188 21.25 C 54.03125 21.804688 52.875 21.871094 52 22.59375 C 51.484375 23.015625 50.777344 22.980469 50.203125 23.3125 C 49.074219 23.972656 47.808594 24.429688 46.773438 25.199219 C 45.996094 25.78125 45.128906 26.160156 44.316406 26.636719 C 43.042969 27.386719 42.007812 28.464844 40.667969 29.113281 C 40.167969 29.355469 39.824219 29.855469 39.347656 30.195312 C 38.3125 30.929688 37.386719 31.828125 36.425781 32.671875 C 35.800781 33.222656 35.238281 33.835938 34.523438 34.277344 C 34.453125 34.320312 34.390625 34.386719 34.351562 34.457031 C 33.648438 35.757812 32.390625 36.558594 31.476562 37.667969 C 30.957031 38.296875 30.519531 38.996094 30.003906 39.625 C 29.625 40.085938 29.265625 40.574219 28.871094 41.003906 C 28.234375 41.695312 27.714844 42.488281 27.226562 43.253906 C 26.804688 43.917969 26.226562 44.511719 25.976562 45.316406 C 25.71875 46.140625 24.960938 46.707031 24.59375 47.496094 C 24.550781 47.589844 24.4375 47.652344 24.40625 47.746094 C 24.082031 48.828125 23.378906 49.726562 22.980469 50.78125 C 22.722656 51.464844 22.121094 52.003906 22 52.777344 C 21.902344 53.402344 21.679688 53.96875 21.308594 54.5 C 21.085938 54.8125 20.984375 55.214844 20.976562 55.628906 C 20.972656 56.007812 20.855469 56.34375 20.601562 56.667969 C 20.238281 57.132812 20.035156 57.6875 20.023438 58.296875 C 20.007812 59.085938 19.828125 59.808594 19.335938 60.464844 C 18.96875 60.953125 19.09375 61.601562 19.019531 62.171875 C 18.902344 63.09375 18.542969 63.9375 18.324219 64.824219 C 17.867188 66.699219 18.132812 68.628906 17.84375 70.503906 C 17.332031 73.84375 17.726562 77.191406 17.59375 80.535156 C 18.191406 82.328125 17.808594 84.199219 18.027344 86.015625 C 18.132812 86.914062 18.308594 87.828125 18.652344 88.691406 C 18.96875 89.496094 18.871094 90.382812 19.089844 91.21875 C 19.222656 91.722656 19.246094 92.226562 19.605469 92.667969 C 19.984375 93.132812 20.066406 93.742188 20.085938 94.332031 C 20.101562 94.792969 20.214844 95.21875 20.503906 95.558594 C 20.886719 96.003906 20.980469 96.515625 21.003906 97.070312 C 21.03125 97.695312 21.214844 98.261719 21.671875 98.710938 C 21.867188 98.902344 21.851562 99.175781 21.949219 99.402344 C 22.371094 100.398438 23.011719 101.265625 23.527344 102.207031 C 24.167969 103.378906 25.136719 104.300781 25.894531 105.378906 C 26.308594 105.972656 26.835938 106.480469 27.460938 106.890625 C 27.96875 107.230469 28.253906 107.820312 28.777344 108.191406 C 29.511719 108.710938 30.101562 109.425781 30.917969 109.851562 C 31.070312 109.933594 31.203125 110.03125 31.277344 110.1875 C 31.425781 110.5 31.695312 110.644531 32.007812 110.730469 C 32.457031 110.851562 32.894531 110.988281 33.136719 111.4375 C 33.171875 111.507812 33.253906 111.585938 33.328125 111.597656 C 34.390625 111.785156 35.117188 112.730469 36.199219 112.875 C 36.40625 112.902344 36.652344 112.898438 36.773438 113.089844 C 37.171875 113.710938 37.8125 113.746094 38.441406 113.769531 C 38.777344 113.785156 39.085938 113.882812 39.308594 114.089844 C 39.917969 114.652344 40.65625 114.8125 41.441406 114.871094 C 42.03125 114.910156 42.59375 114.972656 43.097656 115.355469 C 43.601562 115.738281 44.226562 115.777344 44.835938 115.804688 C 45.613281 115.832031 46.359375 115.910156 47.101562 116.222656 C 48.304688 116.734375 49.597656 116.898438 50.902344 116.9375 C 51.78125 116.964844 52.632812 117.058594 53.480469 117.394531 C 54.183594 117.667969 54.984375 117.746094 55.753906 117.796875 C 57.09375 117.886719 58.4375 117.890625 59.78125 117.921875 C 60.757812 117.945312 61.6875 118.238281 62.617188 118.464844 C 63.839844 118.761719 65.070312 118.714844 66.296875 118.796875 C 67.96875 118.910156 69.652344 118.765625 71.332031 118.9375 C 72.070312 119.011719 72.769531 119.152344 73.429688 119.5 C 73.609375 119.59375 73.832031 119.671875 74.03125 119.660156 C 75.1875 119.601562 76.304688 119.996094 77.464844 119.949219 C 78.664062 119.898438 79.84375 120 80.996094 120.425781 C 82.207031 120.875 83.503906 120.882812 84.777344 120.910156 C 85.722656 120.929688 86.609375 121.148438 87.464844 121.503906 C 88.023438 121.738281 88.597656 121.800781 89.183594 121.832031 C 90.195312 121.882812 91.167969 122.074219 92.085938 122.53125 C 92.488281 122.730469 92.945312 122.710938 93.378906 122.773438 C 94.476562 122.921875 95.511719 123.296875 96.53125 123.695312 C 96.773438 123.789062 97.007812 123.847656 97.261719 123.867188 C 97.894531 123.914062 98.5 124.015625 99.019531 124.441406 C 99.59375 124.90625 100.382812 124.6875 100.996094 124.980469 C 102.253906 125.578125 103.632812 125.871094 104.84375 126.574219 C 105.203125 126.785156 105.597656 126.933594 106.027344 126.960938 C 106.113281 126.96875 106.230469 126.957031 106.273438 127.007812 C 107.074219 127.945312 108.375 127.875 109.359375 128.523438 C 110.210938 129.078125 111.039062 129.84375 112.148438 129.980469 C 112.289062 130 112.582031 130.1875 112.378906 130.273438 C 111.773438 130.527344 111.589844 131.285156 110.9375 131.421875 C 109.945312 131.628906 109.324219 132.632812 108.246094 132.636719 C 107.710938 133.421875 106.640625 133.363281 106.019531 134.042969 C 105.753906 134.328125 105.355469 134.484375 104.957031 134.539062 C 104.367188 134.621094 103.824219 134.71875 103.40625 135.242188 C 103.148438 135.5625 102.65625 135.449219 102.277344 135.542969 C 101.921875 135.625 101.578125 135.699219 101.363281 136.03125 C 101.253906 136.195312 101.085938 136.300781 100.890625 136.3125 C 99.679688 136.394531 98.628906 136.945312 97.550781 137.417969 C 97.289062 137.53125 97.027344 137.542969 96.757812 137.570312 C 96.191406 137.628906 95.644531 137.691406 95.183594 138.105469 C 94.851562 138.40625 94.398438 138.445312 93.945312 138.484375 C 92.914062 138.570312 91.832031 138.460938 90.960938 139.238281 C 90.78125 139.398438 90.441406 139.421875 90.175781 139.417969 C 88.671875 139.390625 87.199219 139.644531 85.761719 139.980469 C 82.527344 140.714844 79.257812 140.515625 75.992188 140.542969 Z M 75.992188 140.542969 "/>
</g>
</svg>
